<mxfile host="app.diagrams.net" agent="Mozilla/5.0 (Windows NT 10.0; Win64; x64) AppleWebKit/537.36 (KHTML, like Gecko) Chrome/123.0.0.0 Safari/537.36" version="24.8.4">
  <diagram name="Page-1" id="52a04d89-c75d-2922-d76d-85b35f80e030">
    <mxGraphModel dx="1598" dy="611" grid="1" gridSize="10" guides="1" tooltips="1" connect="1" arrows="1" fold="1" page="1" pageScale="1" pageWidth="1100" pageHeight="850" background="none" math="0" shadow="0">
      <root>
        <mxCell id="0" />
        <mxCell id="1" parent="0" />
        <mxCell id="kcyztwDSL00C7o8e_8Dl-48" style="edgeStyle=orthogonalEdgeStyle;rounded=1;orthogonalLoop=1;jettySize=auto;html=1;curved=0;" parent="1" source="21ea969265ad0168-30" target="OrW9qpx-sJE816tUreJa-7" edge="1">
          <mxGeometry relative="1" as="geometry">
            <mxPoint x="840" y="115" as="targetPoint" />
          </mxGeometry>
        </mxCell>
        <mxCell id="21ea969265ad0168-30" value="Agent" style="html=1;rounded=0;shadow=0;comic=0;labelBackgroundColor=none;strokeWidth=2;fontFamily=Verdana;fontSize=12;align=center;shape=mxgraph.ios7ui.horLines;" parent="1" vertex="1">
          <mxGeometry x="430" y="160" width="100" height="50" as="geometry" />
        </mxCell>
        <mxCell id="1fdf3b25b50cf41e-27" style="edgeStyle=none;html=1;labelBackgroundColor=none;startFill=0;startSize=8;endFill=1;endSize=8;fontFamily=Verdana;fontSize=12;" parent="1" source="17472293e6e8944d-30" target="1fdf3b25b50cf41e-1" edge="1">
          <mxGeometry relative="1" as="geometry" />
        </mxCell>
        <mxCell id="17472293e6e8944d-30" value="cAdvisor API endpoint" style="whiteSpace=wrap;html=1;rounded=0;shadow=0;comic=0;labelBackgroundColor=none;strokeWidth=1;fontFamily=Verdana;fontSize=12;align=center;" parent="1" vertex="1">
          <mxGeometry x="60" y="48.5" width="120" height="50" as="geometry" />
        </mxCell>
        <mxCell id="1fdf3b25b50cf41e-1" value="1.1" style="swimlane;html=1;fontStyle=0;childLayout=stackLayout;horizontal=1;startSize=26;fillColor=#e0e0e0;horizontalStack=0;resizeParent=1;resizeLast=0;collapsible=1;marginBottom=0;swimlaneFillColor=#ffffff;align=center;rounded=1;shadow=0;comic=0;labelBackgroundColor=none;strokeWidth=1;fontFamily=Verdana;fontSize=12" parent="1" vertex="1">
          <mxGeometry x="240" y="37" width="140" height="73" as="geometry" />
        </mxCell>
        <mxCell id="1fdf3b25b50cf41e-2" value="Get Metrics&amp;nbsp;&lt;div&gt;(every 60 seconds)&lt;/div&gt;" style="text;html=1;strokeColor=none;fillColor=none;spacingLeft=4;spacingRight=4;whiteSpace=wrap;overflow=hidden;rotatable=0;points=[[0,0.5],[1,0.5]];portConstraint=eastwest;align=center;" parent="1fdf3b25b50cf41e-1" vertex="1">
          <mxGeometry y="26" width="140" height="34" as="geometry" />
        </mxCell>
        <mxCell id="OrW9qpx-sJE816tUreJa-1" value="nodes, namespaces, etc. API endpoint" style="whiteSpace=wrap;html=1;rounded=0;shadow=0;comic=0;labelBackgroundColor=none;strokeWidth=1;fontFamily=Verdana;fontSize=12;align=center;" vertex="1" parent="1">
          <mxGeometry x="60" y="162" width="120" height="62" as="geometry" />
        </mxCell>
        <mxCell id="OrW9qpx-sJE816tUreJa-26" style="edgeStyle=orthogonalEdgeStyle;rounded=0;orthogonalLoop=1;jettySize=auto;html=1;" edge="1" parent="1" source="OrW9qpx-sJE816tUreJa-4" target="21ea969265ad0168-30">
          <mxGeometry relative="1" as="geometry" />
        </mxCell>
        <mxCell id="OrW9qpx-sJE816tUreJa-4" value="1.1" style="swimlane;html=1;fontStyle=0;childLayout=stackLayout;horizontal=1;startSize=26;fillColor=#e0e0e0;horizontalStack=0;resizeParent=1;resizeLast=0;collapsible=1;marginBottom=0;swimlaneFillColor=#ffffff;align=center;rounded=1;shadow=0;comic=0;labelBackgroundColor=none;strokeWidth=1;fontFamily=Verdana;fontSize=12" vertex="1" parent="1">
          <mxGeometry x="240" y="150" width="140" height="70" as="geometry" />
        </mxCell>
        <mxCell id="OrW9qpx-sJE816tUreJa-5" value="Get config&amp;nbsp;&lt;div&gt;(every 14 minutes starting every hour)&lt;/div&gt;" style="text;html=1;strokeColor=none;fillColor=none;spacingLeft=4;spacingRight=4;whiteSpace=wrap;overflow=hidden;rotatable=0;points=[[0,0.5],[1,0.5]];portConstraint=eastwest;align=center;" vertex="1" parent="OrW9qpx-sJE816tUreJa-4">
          <mxGeometry y="26" width="140" height="34" as="geometry" />
        </mxCell>
        <mxCell id="OrW9qpx-sJE816tUreJa-6" style="edgeStyle=none;html=1;labelBackgroundColor=none;startFill=0;startSize=8;endFill=1;endSize=8;fontFamily=Verdana;fontSize=12;exitX=1;exitY=0.5;exitDx=0;exitDy=0;entryX=0;entryY=0.5;entryDx=0;entryDy=0;" edge="1" parent="1" source="OrW9qpx-sJE816tUreJa-1" target="OrW9qpx-sJE816tUreJa-5">
          <mxGeometry relative="1" as="geometry">
            <mxPoint x="200" y="230" as="sourcePoint" />
            <mxPoint x="260" y="230" as="targetPoint" />
          </mxGeometry>
        </mxCell>
        <mxCell id="OrW9qpx-sJE816tUreJa-21" style="edgeStyle=orthogonalEdgeStyle;rounded=0;orthogonalLoop=1;jettySize=auto;html=1;" edge="1" parent="1" source="OrW9qpx-sJE816tUreJa-7" target="OrW9qpx-sJE816tUreJa-10">
          <mxGeometry relative="1" as="geometry" />
        </mxCell>
        <mxCell id="OrW9qpx-sJE816tUreJa-7" value="Master" style="html=1;rounded=0;shadow=0;comic=0;labelBackgroundColor=none;strokeWidth=2;fontFamily=Verdana;fontSize=12;align=center;shape=mxgraph.ios7ui.horLines;" vertex="1" parent="1">
          <mxGeometry x="430" y="290" width="100" height="50" as="geometry" />
        </mxCell>
        <mxCell id="OrW9qpx-sJE816tUreJa-8" style="edgeStyle=orthogonalEdgeStyle;rounded=1;orthogonalLoop=1;jettySize=auto;html=1;curved=0;exitX=1;exitY=0.5;exitDx=0;exitDy=0;" edge="1" parent="1" target="OrW9qpx-sJE816tUreJa-12">
          <mxGeometry relative="1" as="geometry">
            <mxPoint x="700" y="314.65999999999997" as="sourcePoint" />
            <mxPoint x="750" y="314.65999999999997" as="targetPoint" />
          </mxGeometry>
        </mxCell>
        <mxCell id="OrW9qpx-sJE816tUreJa-9" style="edgeStyle=orthogonalEdgeStyle;rounded=1;orthogonalLoop=1;jettySize=auto;html=1;curved=0;exitX=1;exitY=0.5;exitDx=0;exitDy=0;" edge="1" parent="1" source="1fdf3b25b50cf41e-2" target="21ea969265ad0168-30">
          <mxGeometry relative="1" as="geometry">
            <mxPoint x="390" y="203" as="sourcePoint" />
            <mxPoint x="500" y="140" as="targetPoint" />
            <Array as="points">
              <mxPoint x="480" y="80" />
            </Array>
          </mxGeometry>
        </mxCell>
        <mxCell id="OrW9qpx-sJE816tUreJa-20" style="edgeStyle=orthogonalEdgeStyle;rounded=0;orthogonalLoop=1;jettySize=auto;html=1;" edge="1" parent="1" source="OrW9qpx-sJE816tUreJa-10" target="OrW9qpx-sJE816tUreJa-11">
          <mxGeometry relative="1" as="geometry" />
        </mxCell>
        <mxCell id="OrW9qpx-sJE816tUreJa-10" value="Postgre (current)" style="html=1;rounded=0;shadow=0;comic=0;labelBackgroundColor=none;strokeWidth=2;fontFamily=Verdana;fontSize=12;align=center;shape=mxgraph.ios7ui.horLines;" vertex="1" parent="1">
          <mxGeometry x="570" y="290" width="130" height="50" as="geometry" />
        </mxCell>
        <mxCell id="OrW9qpx-sJE816tUreJa-11" value="Postgre (daily)" style="html=1;rounded=0;shadow=0;comic=0;labelBackgroundColor=none;strokeWidth=2;fontFamily=Verdana;fontSize=12;align=center;shape=mxgraph.ios7ui.horLines;" vertex="1" parent="1">
          <mxGeometry x="570" y="400" width="130" height="50" as="geometry" />
        </mxCell>
        <mxCell id="OrW9qpx-sJE816tUreJa-12" value="1.1" style="swimlane;html=1;fontStyle=0;childLayout=stackLayout;horizontal=1;startSize=26;fillColor=#e0e0e0;horizontalStack=0;resizeParent=1;resizeLast=0;collapsible=1;marginBottom=0;swimlaneFillColor=#ffffff;align=center;rounded=1;shadow=0;comic=0;labelBackgroundColor=none;strokeWidth=1;fontFamily=Verdana;fontSize=12" vertex="1" parent="1">
          <mxGeometry x="770" y="285" width="140" height="60" as="geometry" />
        </mxCell>
        <mxCell id="OrW9qpx-sJE816tUreJa-13" value="Cost calc (curernt)" style="text;html=1;strokeColor=none;fillColor=none;spacingLeft=4;spacingRight=4;whiteSpace=wrap;overflow=hidden;rotatable=0;points=[[0,0.5],[1,0.5]];portConstraint=eastwest;align=center;" vertex="1" parent="OrW9qpx-sJE816tUreJa-12">
          <mxGeometry y="26" width="140" height="34" as="geometry" />
        </mxCell>
        <mxCell id="OrW9qpx-sJE816tUreJa-23" style="edgeStyle=orthogonalEdgeStyle;rounded=0;orthogonalLoop=1;jettySize=auto;html=1;" edge="1" parent="1" source="OrW9qpx-sJE816tUreJa-14" target="OrW9qpx-sJE816tUreJa-16">
          <mxGeometry relative="1" as="geometry" />
        </mxCell>
        <mxCell id="OrW9qpx-sJE816tUreJa-14" value="1.1" style="swimlane;html=1;fontStyle=0;childLayout=stackLayout;horizontal=1;startSize=26;fillColor=#e0e0e0;horizontalStack=0;resizeParent=1;resizeLast=0;collapsible=1;marginBottom=0;swimlaneFillColor=#ffffff;align=center;rounded=1;shadow=0;comic=0;labelBackgroundColor=none;strokeWidth=1;fontFamily=Verdana;fontSize=12" vertex="1" parent="1">
          <mxGeometry x="770" y="395" width="140" height="60" as="geometry" />
        </mxCell>
        <mxCell id="OrW9qpx-sJE816tUreJa-15" value="Cost recalc (daily)" style="text;html=1;strokeColor=none;fillColor=none;spacingLeft=4;spacingRight=4;whiteSpace=wrap;overflow=hidden;rotatable=0;points=[[0,0.5],[1,0.5]];portConstraint=eastwest;align=center;" vertex="1" parent="OrW9qpx-sJE816tUreJa-14">
          <mxGeometry y="26" width="140" height="34" as="geometry" />
        </mxCell>
        <mxCell id="OrW9qpx-sJE816tUreJa-16" value="UI" style="whiteSpace=wrap;html=1;rounded=0;shadow=0;comic=0;labelBackgroundColor=none;strokeWidth=1;fontFamily=Verdana;fontSize=12;align=center;" vertex="1" parent="1">
          <mxGeometry x="940" y="60" width="120" height="50" as="geometry" />
        </mxCell>
        <mxCell id="OrW9qpx-sJE816tUreJa-22" style="edgeStyle=orthogonalEdgeStyle;rounded=0;orthogonalLoop=1;jettySize=auto;html=1;entryX=0;entryY=0.118;entryDx=0;entryDy=0;entryPerimeter=0;" edge="1" parent="1" source="OrW9qpx-sJE816tUreJa-11" target="OrW9qpx-sJE816tUreJa-15">
          <mxGeometry relative="1" as="geometry" />
        </mxCell>
        <mxCell id="OrW9qpx-sJE816tUreJa-24" style="edgeStyle=orthogonalEdgeStyle;rounded=0;orthogonalLoop=1;jettySize=auto;html=1;" edge="1" parent="1" source="OrW9qpx-sJE816tUreJa-13" target="OrW9qpx-sJE816tUreJa-16">
          <mxGeometry relative="1" as="geometry">
            <Array as="points">
              <mxPoint x="1000" y="320" />
            </Array>
          </mxGeometry>
        </mxCell>
      </root>
    </mxGraphModel>
  </diagram>
</mxfile>
